# xmcd CD database file
#
# Track frame offsets:
#	150
#	23190
#	43700
#	61215
#	82260
#	100566
#	119276
#	131697
#	150846
#	163941
#	185462
#	205819
#
# Disc length: 3001 seconds
#
# Revision: 7
# Processed by: cddbd v1.5.2PL0 Copyright (c) Steve Scherf et al.
# Submitted via: CDex 1.51
#
DISCID=990bb70c
DTITLE=JOE COCKERS - Joe Cocker's Greatest Hits
DYEAR=1977
DGENRE=Rock
TTITLE0=With A Little Help From My Friends
TTITLE1=Woman To Woman
TTITLE2=The Jealous Kind
TTITLE3=Black-Eyed Blues
TTITLE4=I Think It's Going To Rain
TTITLE5=Cry Me A River
TTITLE6=You Are So Beautiful
TTITLE7=Feeling Alright
TTITLE8=Delta Lady
TTITLE9=Darling Be Home Soon
TTITLE10=High Time We Went
TTITLE11=The Letter
EXTD=YEAR: 1977
EXTT0=
EXTT1=
EXTT2=
EXTT3=
EXTT4=
EXTT5=
EXTT6=
EXTT7=
EXTT8=
EXTT9=
EXTT10=
EXTT11=
PLAYORDER=
